:SAMPLES-PER-SECOND 30
:FULLY-SPECIFIED
:DEGREES
144
root  -23.82866717 38.81466783 51.76022147 3.220010042 -5.262040138 2.386100054
lowerback  11.54389954 0.2803179622 0.4360020459
upperback  2.697819948 0.6531839967 5.584959984
thorax  -3.711400032 0.3302580118 5.52891016
lowerneck  -14.24670029 6.868579865 0.2523219883
upperneck  24.77729988 9.81923008 -0.8114641905
head  10.31779957 4.444749832 0.9465810061
lclavicle  0 -5.34481991e-014 2.981770104e-014
lhumerus  -34.86190033 -0.7512231469 90.06900024
lradius  0.003583191894 6.643666666e-007 31.98270035
lwrist  -1.645157397e-007 -3.533851896e-007 -4.324140072
lhand  -5.505032044e-031 -15.8135004 33.60620117
lfingers  90 7.125020027 -90
lthumb  93.41605384 18.01962653 79.07819387
rclavicle  0 -5.34481991e-014 2.981770104e-014
rhumerus  -43.22800064 -21.64370155 -66.99459839
rradius  -1.296506525e-006 2.359789448e-007 43.58959961
rwrist  -2.281664457e-008 -8.593936229e-009 12.82699966
rhand  -1.345748685e-031 10.2737999 9.996669769
rfingers  -90 -7.125020027 -90
rthumb  -72.52445805 -22.91766803 -51.04506765
rfemur  -27.43461037 -1.361040115 20.40860367
rtibia  9.670418422e-007 1.119611625e-006 41.46341324
rfoot  2.556521167e-006 -16.45590019 0.5838696361
rtoes  2.336001174 19.8686595 -96.84438506
lfemur  -22.32551003 3.699729681 -24.11379623
ltibia  -3.641206786e-005 2.004581745e-007 63.70751572
lfoot  -5.693161143e-007 -5.987515926 -4.974571228
ltoes  -5.298979543 -19.31302686 -105.6655569
145
root  -23.86200071 38.74355526 51.96199793 3.26293993 -5.369790077 1.968280077
lowerback  11.93560028 0.4086820185 0.8484930396
upperback  2.789400101 0.8880109787 5.70720005
thorax  -3.849109888 0.4434089959 5.390319824
lowerneck  -14.36690044 6.861680031 0.1352570057
upperneck  24.64419937 9.820949554 -0.7620185018
head  10.28279972 4.442540169 0.9839429855
lclavicle  0 -5.34481991e-014 2.981770104e-014
lhumerus  -34.99810028 -0.2992940247 89.76979828
lradius  0.003583191894 6.643666666e-007 31.71520042
lwrist  -1.645157397e-007 -3.533851896e-007 -4.746870041
lhand  -5.505032044e-031 -15.8135004 33.60620117
lfingers  90 7.125020027 -90
lthumb  93.41605384 18.01962653 79.07819387
rclavicle  0 -5.34481991e-014 2.981770104e-014
rhumerus  -42.79359818 -21.74480057 -67.0428009
rradius  -1.296506525e-006 2.359789448e-007 43.18989944
rwrist  -2.281664457e-008 -8.593936229e-009 13.18019962
rhand  -1.345748685e-031 10.2737999 9.996669769
rfingers  -90 -7.125020027 -90
rthumb  -72.52445805 -22.91766803 -51.04506765
rfemur  -27.145998 -1.151149511 20.92150116
rtibia  9.670418422e-007 1.119611625e-006 41.90109634
rfoot  2.556521167e-006 -16.97979736 0.1865480542
rtoes  2.336001174 19.8686595 -96.84438506
lfemur  -24.14570808 4.044719696 -23.57599831
ltibia  -3.641206786e-005 2.004581745e-007 64.43670654
lfoot  -5.693161143e-007 -6.209307194 -5.067770004
ltoes  -5.298979543 -19.31302686 -105.6655569
146
root  -23.87866674 38.71266523 52.18755767 3.339040041 -5.263568401 1.900770068
lowerback  11.95079994 0.4355929792 1.07851994
upperback  2.961110115 0.9413769841 5.685939789
thorax  -3.677949905 0.4643549919 5.225800037
lowerneck  -14.36089993 6.816470146 0.1831250042
upperneck  24.36339951 9.772729874 -0.9156159163
head  10.19169998 4.413449764 0.90967381
lclavicle  0 -5.34481991e-014 2.981770104e-014
lhumerus  -35.01520157 0.2960188985 89.34320068
lradius  0.003583191894 6.643666666e-007 31.5279007
lwrist  -1.645157397e-007 -3.533851896e-007 -4.953279972
lhand  -5.505032044e-031 -15.8135004 33.60620117
lfingers  90 7.125020027 -90
lthumb  93.41605384 18.01962653 79.07819387
rclavicle  0 -5.34481991e-014 2.981770104e-014
rhumerus  -42.32479858 -22.03179932 -67.18090057
rradius  -1.296506525e-006 2.359789448e-007 43.03499985
rwrist  -2.281664457e-008 -8.593936229e-009 13.69209957
rhand  -1.345748685e-031 10.2737999 9.996669769
rfingers  -90 -7.125020027 -90
rthumb  -72.52445805 -22.91766803 -51.04506765
rfemur  -27.02160263 -1.236849546 21.01190186
rtibia  9.670418422e-007 1.119611625e-006 42.32389832
rfoot  2.556521167e-006 -17.66810036 -0.03257030621
rtoes  2.336001174 19.8686595 -96.84438506
lfemur  -25.82980156 4.076290131 -23.49740028
ltibia  -3.641206786e-005 2.004581745e-007 64.84390259
lfoot  -5.693161143e-007 -6.775359154 -5.116110325
ltoes  -5.298979543 -19.31302686 -105.6655569
147
root  -23.89200015 38.66755568 52.43955597 3.342380047 -5.213070869 2.147209883
lowerback  11.88669968 0.5139040351 1.01391983
upperback  3.200680017 1.016780019 5.58769989
thorax  -3.397059917 0.4972679913 5.144120216
lowerneck  -14.57400036 6.763060093 0.1338800043
upperneck  24.20369911 9.74005127 -1.047859907
head  10.17980003 4.379030228 0.872682035
lclavicle  0 -5.34481991e-014 2.981770104e-014
lhumerus  -34.97140121 0.7560002208 89.00360107
lradius  0.003583191894 6.643666666e-007 31.52540016
lwrist  -1.645157397e-007 -3.533851896e-007 -4.825049877
lhand  -5.505032044e-031 -15.8135004 33.60620117
lfingers  90 7.125020027 -90
lthumb  93.41605384 18.01962653 79.07819387
rclavicle  0 -5.34481991e-014 2.981770104e-014
rhumerus  -41.92039871 -22.02860069 -67.46710205
rradius  -1.296506525e-006 2.359789448e-007 43.28580093
rwrist  -2.281664457e-008 -8.593936229e-009 13.56980038
rhand  -1.345748685e-031 10.2737999 9.996669769
rfingers  -90 -7.125020027 -90
rthumb  -72.52445805 -22.91766803 -51.04506765
rfemur  -26.90501022 -1.431939721 20.75020218
rtibia  9.670418422e-007 1.119611625e-006 42.88770294
rfoot  2.556521167e-006 -18.11179352 -0.08429116756
rtoes  2.336001174 19.8686595 -96.84438506
lfemur  -27.26030731 4.088859558 -23.80809593
ltibia  -3.641206786e-005 2.004581745e-007 64.94710541
lfoot  -5.693161143e-007 -7.275307178 -5.078750134
ltoes  -5.298979543 -19.31302686 -105.6655569
148
root  -23.92022291 38.57777813 52.68289161 3.225310087 -5.145851135 2.334409952
lowerback  12.10400009 0.598442018 0.8698809147
upperback  3.361419916 1.11026001 5.551300049
thorax  -3.357350111 0.5422999859 5.173630238
lowerneck  -14.64750004 6.738979816 0.1309210062
upperneck  24.07320023 9.748649597 -1.223239899
head  10.15740013 4.364379883 0.8139579892
lclavicle  0 -5.34481991e-014 2.981770104e-014
lhumerus  -35.14609909 1.371179819 88.64089966
lradius  0.003583191894 6.643666666e-007 31.5883007
lwrist  -1.645157397e-007 -3.533851896e-007 -4.980750084
lhand  -5.505032044e-031 -15.8135004 33.60620117
lfingers  90 7.125020027 -90
lthumb  93.41605384 18.01962653 79.07819387
rclavicle  0 -5.34481991e-014 2.981770104e-014
rhumerus  -41.74710083 -21.90999985 -67.64209747
rradius  -1.296506525e-006 2.359789448e-007 43.56230164
rwrist  -2.281664457e-008 -8.593936229e-009 13.22430038
rhand  -1.345748685e-031 10.2737999 9.996669769
rfingers  -90 -7.125020027 -90
rthumb  -72.52445805 -22.91766803 -51.04506765
rfemur  -26.65459824 -1.473709583 20.5698967
rtibia  9.670418422e-007 1.119611625e-006 43.50339508
rfoot  2.556521167e-006 -18.64399529 -0.4134224057
rtoes  2.336001174 19.8686595 -96.84438506
lfemur  -28.50019455 4.224050522 -24.05410385
ltibia  -3.641206786e-005 2.004581745e-007 64.85999298
lfoot  -5.693161143e-007 -7.783729076 -4.94974947
ltoes  -5.298979543 -19.31302686 -105.6655569
149
root  -23.95333268 38.50822148 52.92333167 3.021100044 -4.989840031 2.349999905
lowerback  12.52219963 0.6334229708 0.8909817934
upperback  3.467900038 1.169679999 5.531449795
thorax  -3.478830099 0.5713790059 5.131849766
lowerneck  -14.80169964 6.710299969 0.1045150012
upperneck  24.14539909 9.711299896 -1.18846035
head  10.20909977 4.344620228 0.8333239555
lclavicle  0 -5.34481991e-014 2.981770104e-014
lhumerus  -35.38750076 1.982439995 88.20870209
lradius  0.003583191894 6.643666666e-007 31.50869942
lwrist  -1.645157397e-007 -3.533851896e-007 -5.040989876
lhand  -5.505032044e-031 -15.8135004 33.60620117
lfingers  90 7.125020027 -90
lthumb  93.41605384 18.01962653 79.07819387
rclavicle  0 -5.34481991e-014 2.981770104e-014
rhumerus  -41.61009979 -21.9661026 -67.74859619
rradius  -1.296506525e-006 2.359789448e-007 43.58100128
rwrist  -2.281664457e-008 -8.593936229e-009 13.25160027
rhand  -1.345748685e-031 10.2737999 9.996669769
rfingers  -90 -7.125020027 -90
rthumb  -72.52445805 -22.91766803 -51.04506765
rfemur  -26.35181046 -1.487319469 20.60120392
rtibia  9.670418422e-007 1.119611625e-006 44.15631866
rfoot  2.556521167e-006 -19.47260857 -1.050530076
rtoes  2.336001174 19.8686595 -96.84438506
lfemur  -29.56251144 4.379579067 -24.09579468
ltibia  -3.641206786e-005 2.004581745e-007 64.53941345
lfoot  -5.693161143e-007 -8.366674423 -4.93543148
ltoes  -5.298979543 -19.31302686 -105.6655569
150
root  -23.99044487 38.46466785 53.15310861 2.961159945 -4.84980154 2.093100071
lowerback  12.96650028 0.6914459467 1.101410031
upperback  3.500509977 1.294129968 5.622300148
thorax  -3.695549965 0.6331409812 5.089630127
lowerneck  -14.8774004 6.650290012 -0.02628129907
upperneck  24.14620018 9.640110016 -1.106149912
head  10.21140003 4.309000015 0.8761260509
lclavicle  0 -5.34481991e-014 2.981770104e-014
lhumerus  -35.44810104 2.340679884 87.93890381
lradius  0.003583191894 6.643666666e-007 31.09020042
lwrist  -1.645157397e-007 -3.533851896e-007 -4.882500172
lhand  -5.505032044e-031 -15.8135004 33.60620117
lfingers  90 7.125020027 -90
lthumb  93.41605384 18.01962653 79.07819387
rclavicle  0 -5.34481991e-014 2.981770104e-014
rhumerus  -41.39089966 -22.05459976 -67.74009705
rradius  -1.296506525e-006 2.359789448e-007 43.4015007
rwrist  -2.281664457e-008 -8.593936229e-009 13.30529976
rhand  -1.345748685e-031 10.2737999 9.996669769
rfingers  -90 -7.125020027 -90
rthumb  -72.52445805 -22.91766803 -51.04506765
rfemur  -26.21980858 -1.361860037 20.95890236
rtibia  9.670418422e-007 1.119611625e-006 44.78279877
rfoot  2.556521167e-006 -19.85449028 -1.483928919
rtoes  2.336001174 19.8686595 -96.84438506
lfemur  -30.82581139 4.518209934 -23.84600067
ltibia  -3.641206786e-005 2.004581745e-007 64.05060577
lfoot  -5.693161143e-007 -8.785043716 -5.116149902
ltoes  -5.298979543 -19.31302686 -105.6655569
151
root  -24.01711171 38.39955668 53.3748897 2.935989857 -4.768870831 1.96040988
lowerback  13.31470013 0.7882220149 1.195330143
upperback  3.530800104 1.450580001 5.673769951
thorax  -3.86571002 0.7108479738 5.065450191
lowerneck  -14.62170029 6.659939766 0.1671790034
upperneck  23.9640007 9.665280342 -1.378309965
head  10.12390041 4.314809799 0.7406089902
lclavicle  0 -5.34481991e-014 2.981770104e-014
lhumerus  -35.40660095 2.610169649 87.71140289
lradius  0.003583191894 6.643666666e-007 30.5340004
lwrist  -1.645157397e-007 -3.533851896e-007 -4.839550018
lhand  -5.505032044e-031 -15.8135004 33.60620117
lfingers  90 7.125020027 -90
lthumb  93.41605384 18.01962653 79.07819387
rclavicle  0 -5.34481991e-014 2.981770104e-014
rhumerus  -41.24499893 -22.00639915 -67.74169922
rradius  -1.296506525e-006 2.359789448e-007 43.32229996
rwrist  -2.281664457e-008 -8.593936229e-009 12.97970009
rhand  -1.345748685e-031 10.2737999 9.996669769
rfingers  -90 -7.125020027 -90
rthumb  -72.52445805 -22.91766803 -51.04506765
rfemur  -26.13979912 -1.230509639 21.14749908
rtibia  9.670418422e-007 1.119611625e-006 45.37051392
rfoot  2.556521167e-006 -19.93641472 -1.616232276
rtoes  2.336001174 19.8686595 -96.84438506
lfemur  -32.14989853 4.721700191 -23.80999374
ltibia  -3.641206786e-005 2.004581745e-007 63.3970108
lfoot  -5.693161143e-007 -9.236841202 -5.276910305
ltoes  -5.298979543 -19.31302686 -105.6655569
